<?xml version="1.0" standalone="no"?>
<!DOCTYPE svg PUBLIC "-//W3C//DTD SVG 20010904//EN"
 "http://www.w3.org/TR/2001/REC-SVG-20010904/DTD/svg10.dtd">
<svg version="1.0" xmlns="http://www.w3.org/2000/svg"
 width="300.000000pt" height="300.000000pt" viewBox="0 0 300.000000 300.000000"
 preserveAspectRatio="xMidYMid meet">
<metadata>
Created by potrace 1.11, written by Peter Selinger 2001-2013
</metadata>
<g transform="translate(0.000000,300.000000) scale(0.100000,-0.100000)"
fill="#000000" stroke="none">
<path d="M643 2940 c-108 -28 -161 -75 -185 -164 -16 -60 0 -122 47 -188 41
-56 41 -85 5 -208 -7 -25 -15 -56 -18 -70 -9 -37 -8 -212 0 -235 6 -16 -6 -34
-57 -88 -156 -164 -236 -342 -236 -528 0 -44 2 -83 5 -87 3 -5 7 -21 10 -36 8
-44 37 -125 46 -131 5 -3 -3 -18 -17 -33 -58 -62 -175 -242 -156 -242 3 0 1
-6 -4 -12 -6 -7 -16 -35 -22 -63 -7 -27 -15 -59 -18 -70 -3 -11 -7 -54 -9 -95
-7 -121 31 -253 112 -392 39 -66 183 -175 274 -207 162 -57 220 -52 575 45 33
9 67 18 75 20 25 6 104 26 115 28 6 2 17 6 25 9 26 10 748 186 790 193 14 2
41 8 60 14 34 9 100 21 110 19 3 0 17 4 32 10 15 6 46 13 70 16 184 23 380 93
489 175 51 39 112 109 145 167 119 212 49 554 -150 729 -50 44 -166 108 -216
118 -52 11 -98 24 -108 29 -5 4 -13 26 -17 49 -5 24 -9 45 -10 48 -1 3 -7 24
-14 48 -25 87 -103 205 -179 273 -59 52 -121 84 -206 105 -49 12 -66 21 -66
34 0 33 -81 181 -141 254 -122 153 -332 295 -535 364 -58 20 -271 79 -315 87
-11 2 -28 6 -37 9 -82 25 -189 27 -269 6z"/>
</g>
</svg>
